<mxfile host="app.diagrams.net" agent="Mozilla/5.0 (X11; Ubuntu; Linux x86_64; rv:133.0) Gecko/20100101 Firefox/133.0" version="26.1.1">
  <diagram name="Страница — 1" id="-aC2LgrRvAPeOgifP5qQ">
    <mxGraphModel dx="1506" dy="965" grid="1" gridSize="10" guides="1" tooltips="1" connect="1" arrows="1" fold="1" page="1" pageScale="1" pageWidth="1100" pageHeight="850" math="0" shadow="0">
      <root>
        <mxCell id="0" />
        <mxCell id="1" parent="0" />
        <mxCell id="G6PU_WZym4Gf-ZEjerz6-1" value="a: Пользователь" style="shape=umlActor;verticalLabelPosition=bottom;verticalAlign=top;html=1;outlineConnect=0;" vertex="1" parent="1">
          <mxGeometry x="165" y="200" width="30" height="60" as="geometry" />
        </mxCell>
        <mxCell id="G6PU_WZym4Gf-ZEjerz6-2" value=": Система" style="rounded=0;whiteSpace=wrap;html=1;" vertex="1" parent="1">
          <mxGeometry x="290" y="210" width="120" height="60" as="geometry" />
        </mxCell>
        <mxCell id="G6PU_WZym4Gf-ZEjerz6-3" value=": Расписание" style="rounded=0;whiteSpace=wrap;html=1;" vertex="1" parent="1">
          <mxGeometry x="460" y="210" width="120" height="60" as="geometry" />
        </mxCell>
        <mxCell id="G6PU_WZym4Gf-ZEjerz6-4" value=": Сведения о врачах" style="rounded=0;whiteSpace=wrap;html=1;" vertex="1" parent="1">
          <mxGeometry x="640" y="210" width="120" height="60" as="geometry" />
        </mxCell>
        <mxCell id="G6PU_WZym4Gf-ZEjerz6-5" value="" style="rounded=0;whiteSpace=wrap;html=1;" vertex="1" parent="1">
          <mxGeometry x="170" y="320" width="20" height="290" as="geometry" />
        </mxCell>
        <mxCell id="G6PU_WZym4Gf-ZEjerz6-6" value="" style="endArrow=none;dashed=1;html=1;rounded=0;exitX=0.5;exitY=0;exitDx=0;exitDy=0;" edge="1" parent="1" source="G6PU_WZym4Gf-ZEjerz6-5">
          <mxGeometry width="50" height="50" relative="1" as="geometry">
            <mxPoint x="570" y="490" as="sourcePoint" />
            <mxPoint x="180" y="290" as="targetPoint" />
          </mxGeometry>
        </mxCell>
        <mxCell id="G6PU_WZym4Gf-ZEjerz6-8" value="" style="rounded=0;whiteSpace=wrap;html=1;" vertex="1" parent="1">
          <mxGeometry x="340" y="320" width="20" height="50" as="geometry" />
        </mxCell>
        <mxCell id="G6PU_WZym4Gf-ZEjerz6-9" value="" style="endArrow=classic;html=1;rounded=0;" edge="1" parent="1">
          <mxGeometry relative="1" as="geometry">
            <mxPoint x="190" y="330" as="sourcePoint" />
            <mxPoint x="340" y="330" as="targetPoint" />
          </mxGeometry>
        </mxCell>
        <mxCell id="G6PU_WZym4Gf-ZEjerz6-10" value="выбратьВрача()" style="edgeLabel;resizable=0;html=1;;align=center;verticalAlign=middle;" connectable="0" vertex="1" parent="G6PU_WZym4Gf-ZEjerz6-9">
          <mxGeometry relative="1" as="geometry">
            <mxPoint y="-10" as="offset" />
          </mxGeometry>
        </mxCell>
        <mxCell id="G6PU_WZym4Gf-ZEjerz6-12" value="" style="endArrow=none;dashed=1;html=1;rounded=0;entryX=0.5;entryY=1;entryDx=0;entryDy=0;exitX=0.5;exitY=0;exitDx=0;exitDy=0;" edge="1" parent="1" source="G6PU_WZym4Gf-ZEjerz6-8" target="G6PU_WZym4Gf-ZEjerz6-2">
          <mxGeometry width="50" height="50" relative="1" as="geometry">
            <mxPoint x="390.5" y="340" as="sourcePoint" />
            <mxPoint x="390" y="290" as="targetPoint" />
          </mxGeometry>
        </mxCell>
        <mxCell id="G6PU_WZym4Gf-ZEjerz6-13" value="" style="rounded=0;whiteSpace=wrap;html=1;" vertex="1" parent="1">
          <mxGeometry x="510" y="390" width="20" height="50" as="geometry" />
        </mxCell>
        <mxCell id="G6PU_WZym4Gf-ZEjerz6-14" value="" style="rounded=0;whiteSpace=wrap;html=1;" vertex="1" parent="1">
          <mxGeometry x="690" y="420" width="20" height="50" as="geometry" />
        </mxCell>
        <mxCell id="G6PU_WZym4Gf-ZEjerz6-15" value="" style="endArrow=none;dashed=1;html=1;rounded=0;entryX=0.5;entryY=1;entryDx=0;entryDy=0;exitX=0.5;exitY=0;exitDx=0;exitDy=0;" edge="1" source="G6PU_WZym4Gf-ZEjerz6-14" parent="1" target="G6PU_WZym4Gf-ZEjerz6-4">
          <mxGeometry width="50" height="50" relative="1" as="geometry">
            <mxPoint x="740.5" y="440" as="sourcePoint" />
            <mxPoint x="700" y="370" as="targetPoint" />
          </mxGeometry>
        </mxCell>
        <mxCell id="G6PU_WZym4Gf-ZEjerz6-16" value="" style="endArrow=none;dashed=1;html=1;rounded=0;entryX=0.5;entryY=1;entryDx=0;entryDy=0;exitX=0.5;exitY=0;exitDx=0;exitDy=0;" edge="1" parent="1" source="G6PU_WZym4Gf-ZEjerz6-13" target="G6PU_WZym4Gf-ZEjerz6-3">
          <mxGeometry width="50" height="50" relative="1" as="geometry">
            <mxPoint x="710" y="430" as="sourcePoint" />
            <mxPoint x="710" y="280" as="targetPoint" />
          </mxGeometry>
        </mxCell>
        <mxCell id="G6PU_WZym4Gf-ZEjerz6-17" value="b: Врач" style="rounded=0;whiteSpace=wrap;html=1;" vertex="1" parent="1">
          <mxGeometry x="810" y="210" width="120" height="60" as="geometry" />
        </mxCell>
        <mxCell id="G6PU_WZym4Gf-ZEjerz6-18" value="" style="rounded=0;whiteSpace=wrap;html=1;" vertex="1" parent="1">
          <mxGeometry x="860" y="475" width="20" height="50" as="geometry" />
        </mxCell>
        <mxCell id="G6PU_WZym4Gf-ZEjerz6-19" value="" style="endArrow=none;dashed=1;html=1;rounded=0;entryX=0.5;entryY=1;entryDx=0;entryDy=0;exitX=0.5;exitY=0;exitDx=0;exitDy=0;" edge="1" source="G6PU_WZym4Gf-ZEjerz6-18" parent="1" target="G6PU_WZym4Gf-ZEjerz6-17">
          <mxGeometry width="50" height="50" relative="1" as="geometry">
            <mxPoint x="910.5" y="495" as="sourcePoint" />
            <mxPoint x="870" y="325" as="targetPoint" />
          </mxGeometry>
        </mxCell>
      </root>
    </mxGraphModel>
  </diagram>
</mxfile>
